<svg width="698pt" height="370pt" viewBox="0.00 0.00 697.50 369.65" xmlns="http://www.w3.org/2000/svg" xmlns:xlink="http://www.w3.org/1999/xlink">
<g id="graph0" class="graph" transform="scale(1 1) rotate(0) translate(4 365.65)">
<title>oRm</title>
<polygon fill="white" stroke="none" points="-4,4 -4,-365.65 693.5,-365.65 693.5,4 -4,4"/>
<!-- Engine -->
<g id="node1" class="node">
<title>Engine</title>
<polygon fill="#e6f2ff" stroke="black" points="220.26,-203.28 0,-203.28 0,-161.68 220.26,-161.68 220.26,-203.28"/>
<text text-anchor="middle" x="110.13" y="-186.68" font-family="Helvetica,sans-Serif" font-size="14.00">Engine</text>
<text text-anchor="middle" x="110.13" y="-169.88" font-family="Helvetica,sans-Serif" font-size="14.00">(DBI connection + model factory)</text>
</g>
<!-- TableModel -->
<g id="node2" class="node">
<title>TableModel</title>
<polygon fill="#e6f2ff" stroke="black" points="598.05,-233.39 412.8,-233.39 412.8,-191.79 598.05,-191.79 598.05,-233.39"/>
<text text-anchor="middle" x="505.43" y="-216.79" font-family="Helvetica,sans-Serif" font-size="14.00">TableModel</text>
<text text-anchor="middle" x="505.43" y="-199.99" font-family="Helvetica,sans-Serif" font-size="14.00">(Table definition + schema)</text>
</g>
<!-- Engine&#45;&gt;TableModel -->
<g id="edge1" class="edge">
<title>Engine-&gt;TableModel</title>
<path fill="none" stroke="black" d="M220.56,-197.05C277.12,-202.21 345.59,-207.39 401.23,-210.69"/>
<polygon fill="black" stroke="black" points="400.84,-214.17 411.03,-211.26 401.25,-207.19 400.84,-214.17"/>
<text text-anchor="middle" x="291.47" y="-208.07" font-family="Times,serif" font-size="14.00">creates</text>
</g>
<!-- TableModel&#45;&gt;Engine -->
<g id="edge6" class="edge">
<title>TableModel-&gt;Engine</title>
<path fill="none" stroke="black" d="M401.39,-198.61C345.76,-193.45 277.28,-188.2 220.69,-184.76"/>
<polygon fill="black" stroke="black" points="400.9,-202.08 411.18,-199.54 401.56,-195.11 400.9,-202.08"/>
<text text-anchor="middle" x="364.11" y="-179.09" font-family="Times,serif" font-size="14.00">uses for DB access</text>
</g>
<!-- TableModel&#45;&gt;TableModel -->
<g id="edge5" class="edge">
<title>TableModel-&gt;TableModel</title>
<path fill="none" stroke="black" stroke-dasharray="5,2" d="M598.23,-218.35C609.03,-217.29 616.05,-215.37 616.05,-212.59 616.05,-210.94 613.58,-209.59 609.31,-208.55"/>
<polygon fill="black" stroke="black" points="610.15,-205.14 599.73,-207.06 609.07,-212.05 610.15,-205.14"/>
<text text-anchor="middle" x="641.51" y="-208.39" font-family="Times,serif" font-size="14.00">relates to</text>
</g>
<!-- Record -->
<g id="node3" class="node">
<title>Record</title>
<polygon fill="#e6f2ff" stroke="black" points="689.5,-57.76 561.47,-57.76 561.47,-16.16 689.5,-16.16 689.5,-57.76"/>
<text text-anchor="middle" x="625.48" y="-41.16" font-family="Helvetica,sans-Serif" font-size="14.00">Record</text>
<text text-anchor="middle" x="625.48" y="-24.36" font-family="Helvetica,sans-Serif" font-size="14.00">(Row-level object)</text>
</g>
<!-- TableModel&#45;&gt;Record -->
<g id="edge2" class="edge">
<title>TableModel-&gt;Record</title>
<path fill="none" stroke="black" d="M525.57,-191.6C549.6,-160.89 588.86,-103.64 610.43,-68.04"/>
<polygon fill="black" stroke="black" points="613.41,-69.87 615.5,-59.48 607.39,-66.3 613.41,-69.87"/>
<text text-anchor="middle" x="536.51" y="-134.02" font-family="Times,serif" font-size="14.00">instantiates</text>
</g>
<!-- Column -->
<g id="node4" class="node">
<title>Column</title>
<polygon fill="#e6f2ff" stroke="black" points="552.29,-361.65 439.02,-361.65 439.02,-320.05 552.29,-320.05 552.29,-361.65"/>
<text text-anchor="middle" x="495.66" y="-345.05" font-family="Helvetica,sans-Serif" font-size="14.00">Column</text>
<text text-anchor="middle" x="495.66" y="-328.25" font-family="Helvetica,sans-Serif" font-size="14.00">(Field metadata</text>
</g>
<!-- TableModel&#45;&gt;Column -->
<g id="edge3" class="edge">
<title>TableModel-&gt;Column</title>
<path fill="none" stroke="black" d="M503.81,-233.77C502.27,-254.01 499.93,-284.8 498.15,-308.18"/>
<polygon fill="black" stroke="black" points="494.66,-307.89 497.39,-318.13 501.64,-308.43 494.66,-307.89"/>
<text text-anchor="middle" x="457.05" y="-275.18" font-family="Times,serif" font-size="14.00">uses (for fields)</text>
</g>
<!-- Relationship -->
<g id="node5" class="node">
<title>Relationship</title>
<polygon fill="none" stroke="black" stroke-dasharray="5,2" points="488.28,-41.6 338.43,-41.6 338.43,0 488.28,0 488.28,-41.6"/>
<text text-anchor="middle" x="413.35" y="-25" font-family="Helvetica,sans-Serif" font-size="14.00">Relationship</text>
<text text-anchor="middle" x="413.35" y="-8.2" font-family="Helvetica,sans-Serif" font-size="14.00">(Relational metadata)</text>
</g>
<!-- TableModel&#45;&gt;Relationship -->
<g id="edge7" class="edge">
<title>TableModel-&gt;Relationship</title>
<path fill="none" stroke="black" stroke-dasharray="5,2" d="M499.95,-191.29C486.92,-157.4 455.47,-91.13 434.14,-51.92"/>
<polygon fill="black" stroke="black" points="437.2,-50.23 429.28,-43.19 431.08,-53.63 437.2,-50.23"/>
<text text-anchor="middle" x="443.33" y="-125.81" font-family="Times,serif" font-size="14.00">registers</text>
</g>
<!-- Record&#45;&gt;TableModel -->
<g id="edge4" class="edge">
<title>Record-&gt;TableModel</title>
<path fill="none" stroke="black" d="M605.34,-57.94C581.31,-88.66 542.05,-145.9 520.48,-181.5"/>
<polygon fill="black" stroke="black" points="517.5,-179.68 515.42,-190.06 523.52,-183.24 517.5,-179.68"/>
<text text-anchor="middle" x="533.94" y="-107.12" font-family="Times,serif" font-size="14.00">belongs to</text>
</g>
<!-- Record&#45;&gt;Relationship -->
<g id="edge8" class="edge">
<title>Record-&gt;Relationship</title>
<path fill="none" stroke="black" stroke-dasharray="5,2" d="M560.97,-32.04C541.74,-30.58 520.34,-28.95 499.94,-27.39"/>
<polygon fill="black" stroke="black" points="500.48,-23.93 490.24,-26.66 499.94,-30.91 500.48,-23.93"/>
<text text-anchor="middle" x="530.46" y="-17.12" font-family="Times,serif" font-size="14.00">uses to fetch related</text>
</g>
<!-- Relationship&#45;&gt;TableModel -->
<g id="edge9" class="edge">
<title>Relationship-&gt;TableModel</title>
<path fill="none" stroke="black" stroke-dasharray="5,2" d="M418.83,-42.1C431.86,-75.99 463.31,-142.26 484.64,-181.46"/>
<polygon fill="black" stroke="black" points="481.58,-183.16 489.5,-190.2 487.7,-179.76 481.58,-183.16"/>
<text text-anchor="middle" x="427.43" y="-99.18" font-family="Times,serif" font-size="14.00">points to</text>
</g>
</g>
</svg>